<svg version="1.2" xmlns="http://www.w3.org/2000/svg" viewBox="0 0 36 36" width="36" height="36">
	<style>
		.s0 { fill: #000 }
	</style>
	<path id="Layer" class="s0" d="m7.5 12.5l-5.5-2.8q-0.7 1.3-1.1 2.7l5.9 1.9q0.3-0.9 0.7-1.8z"/>
	<path id="Layer" class="s0" d="m12.2 7.6l3.1 5.3q0.7-0.4 1.4-0.6l-1.6-5.9q0.6-0.2 1.3-0.3l-1-6.1q-1.4 0.2-2.8 0.6l1.9 5.8q-0.9 0.3-1.8 0.8l-2.8-5.5q-1.2 0.7-2.4 1.5l3.7 5.1q0.5-0.4 1-0.7z"/>
	<path id="Layer" class="s0" d="m28.7 12l-5.3 3q0.4 0.7 0.6 1.5l5.9-1.6q0.2 0.6 0.3 1.2l6.1-1q-0.2-1.4-0.7-2.8l-5.8 1.9q-0.3-0.9-0.7-1.7l5.4-2.8q-0.6-1.3-1.5-2.5l-5 3.7q0.4 0.5 0.7 1.1z"/>
	<path id="Layer" class="s0" d="m26.5 1.7q-1.3-0.6-2.6-1.1l-1.9 5.9q0.9 0.3 1.7 0.8l2.8-5.6z"/>
	<path id="Layer" class="s0" d="m24.3 7.5l-3.1 5.4q0.7 0.3 1.3 0.9l8.7-8.7q-1.1-1-2.2-1.9l-3.6 5q-0.5-0.4-1.1-0.7z"/>
	<path id="Layer" class="s0" d="m7.7 11.9l5.4 3.1q0.4-0.6 1-1.2l-8.8-8.7q-1 1-1.8 2.2l4.9 3.6q-0.3 0.5-0.7 1z"/>
	<path id="Layer" class="s0" d="m20.1 6l1-6q-1.4-0.3-2.8-0.3h-0.1v12.4h0.1q0.7 0 1.5 0.2l1.6-6q-0.6-0.2-1.3-0.3z"/>
	<path id="Layer" class="s0" d="m12.5 16.5l-6-1.6q-0.1 0.6-0.2 1.2l-6.1-0.9q-0.2 1.4-0.2 2.8h12.3q0-0.8 0.2-1.5z"/>
	<path id="Layer" class="s0" d="m29 23.5l5.5 2.8q0.7-1.3 1.1-2.7l-5.9-1.9q-0.3 0.9-0.7 1.8z"/>
	<path id="Layer" class="s0" d="m24.3 28.4l-3.1-5.3q-0.6 0.4-1.4 0.6l1.6 5.9q-0.6 0.2-1.2 0.3l0.9 6.1q1.5-0.2 2.8-0.6l-1.9-5.8q0.9-0.3 1.8-0.8l2.8 5.5q1.3-0.7 2.4-1.5l-3.6-5.1q-0.6 0.4-1.1 0.7z"/>
	<path id="Layer" class="s0" d="m7.8 24l5.3-3q-0.4-0.7-0.6-1.4l-5.9 1.5q-0.1-0.6-0.2-1.2l-6.2 1q0.3 1.4 0.7 2.8l5.8-1.9q0.3 0.9 0.7 1.7l-5.4 2.8q0.7 1.3 1.5 2.5l5-3.7q-0.3-0.5-0.7-1.1z"/>
	<path id="Layer" class="s0" d="m10 34.3q1.3 0.6 2.6 1.1l2-5.9q-0.9-0.3-1.8-0.8l-2.8 5.6z"/>
	<path id="Layer" class="s0" d="m12.2 28.5l3.1-5.4q-0.7-0.3-1.2-0.9l-8.7 8.7q1 1.1 2.2 1.9l3.5-5q0.6 0.4 1.1 0.7z"/>
	<path id="Layer" class="s0" d="m28.8 24.1l-5.4-3.1q-0.4 0.6-0.9 1.2l8.7 8.7q1-1 1.8-2.2l-4.9-3.6q0.4-0.5 0.7-1z"/>
	<path id="Layer" class="s0" d="m16.7 23.7l-1.6 6q0.7 0.2 1.3 0.3l-1 6q1.4 0.3 2.9 0.3v-12.4q-0.8 0-1.6-0.2z"/>
	<path id="Layer" class="s0" d="m24.2 18q0 0.8-0.2 1.5l6 1.6q0.2-0.6 0.3-1.2l6 0.9q0.2-1.4 0.2-2.8h-12.3z"/>
</svg>