<?xml version="1.0" standalone="no"?>
<!DOCTYPE svg PUBLIC "-//W3C//DTD SVG 20010904//EN"
 "http://www.w3.org/TR/2001/REC-SVG-20010904/DTD/svg10.dtd">
<svg version="1.0" xmlns="http://www.w3.org/2000/svg"
 width="512.000000pt" height="512.000000pt" viewBox="0 0 512.000000 512.000000"
 preserveAspectRatio="xMidYMid meet">

<g transform="translate(0.000000,512.000000) scale(0.100000,-0.100000)"
fill="#000000" stroke="none">
<path d="M2370 5113 c-559 -53 -1006 -230 -1417 -562 -514 -413 -842 -1000
-934 -1671 -18 -125 -18 -515 0 -640 80 -582 327 -1083 732 -1489 729 -728
1808 -948 2769 -564 634 254 1172 793 1418 1424 300 768 225 1606 -205 2302
-75 121 -92 137 -143 137 -33 0 -48 -6 -71 -29 -46 -47 -40 -81 36 -202 175
-278 291 -594 342 -929 24 -161 24 -502 -1 -660 -68 -444 -253 -855 -534
-1190 -333 -398 -814 -685 -1322 -789 -176 -37 -273 -46 -485 -45 -384 0 -687
70 -1030 238 -706 346 -1182 999 -1302 1786 -24 161 -24 502 0 660 26 166 72
347 124 485 309 820 1013 1388 1883 1522 158 24 500 24 660 0 334 -51 648
-166 930 -342 122 -76 155 -82 201 -36 37 38 40 96 6 132 -53 58 -348 220
-532 292 -217 86 -473 146 -710 166 -111 10 -334 12 -415 4z"/>
<path d="M2341 4609 c-812 -85 -1510 -662 -1751 -1447 -129 -423 -116 -902 36
-1310 215 -574 652 -1011 1226 -1226 427 -160 929 -166 1367 -17 590 201 1057
656 1275 1243 88 237 120 426 120 708 0 229 -11 320 -59 513 -100 394 -335
774 -647 1042 -438 376 -999 553 -1567 494z m434 -204 c156 -13 361 -69 534
-144 54 -24 85 -43 83 -51 -4 -18 -651 -1141 -668 -1159 -8 -9 -22 -11 -38 -7
l-26 6 0 685 0 685 23 -4 c12 -3 54 -7 92 -11z m-315 -674 l0 -679 -26 -6
c-15 -4 -29 -4 -33 -1 -3 4 -157 268 -343 588 l-336 582 76 37 c165 79 449
152 610 157 l52 1 0 -679z m-571 -211 l339 -585 -20 -22 c-18 -19 -23 -20 -42
-8 -19 11 -651 377 -1018 588 -76 43 -138 82 -138 87 0 22 135 186 240 291
110 110 274 243 293 236 4 -1 161 -266 346 -587z m1786 523 c114 -85 281 -251
368 -368 37 -49 67 -92 67 -96 0 -3 -264 -157 -586 -343 l-586 -339 -20 21
-21 20 339 586 c186 322 340 586 343 586 4 0 47 -30 96 -67z m-2170 -993 c308
-177 564 -326 568 -330 4 -4 5 -19 1 -34 l-6 -26 -679 0 -679 0 0 43 c0 55 26
212 51 312 29 111 54 185 101 293 39 89 41 92 62 79 11 -8 273 -159 581 -337z
m2819 90 c42 -128 73 -275 84 -392 l8 -88 -682 0 -682 0 -6 26 c-4 15 -3 30 1
35 4 4 269 159 588 343 l580 335 37 -77 c21 -42 53 -124 72 -182z m-1630 -314
c105 -51 161 -144 161 -266 0 -85 -21 -142 -74 -203 -82 -92 -237 -121 -353
-64 -160 79 -215 278 -118 430 80 126 246 170 384 103z m-618 -392 c4 -16 2
-30 -7 -38 -12 -11 -240 -143 -1127 -654 l-42 -24 -26 58 c-87 195 -144 401
-159 571 -4 37 -8 78 -11 91 l-4 22 685 0 685 0 6 -26z m2331 -53 c-14 -174
-82 -430 -155 -583 l-37 -76 -582 336 c-320 186 -584 340 -588 343 -3 4 -3 18
1 33 l6 26 681 0 680 0 -6 -79z m-872 -499 c313 -181 571 -334 572 -339 7 -20
-122 -180 -236 -294 -114 -114 -274 -243 -294 -236 -5 1 -161 266 -347 587
l-338 585 20 22 c15 16 25 20 37 13 9 -5 272 -157 586 -338z m-1322 317 c8
-13 -57 -134 -323 -595 -183 -319 -337 -583 -341 -588 -14 -16 -172 107 -299
234 -115 115 -250 283 -237 296 19 19 1165 673 1176 671 8 -1 18 -9 24 -18z
m225 -125 l22 -6 0 -682 0 -682 -87 8 c-183 17 -422 81 -575 156 l-78 37 301
520 c376 651 378 655 387 655 4 0 17 -3 30 -6z m621 -584 l339 -585 -67 -32
c-172 -83 -481 -163 -628 -163 l-43 0 0 679 c0 639 1 680 18 684 9 3 23 4 30
3 7 0 165 -264 351 -586z"/>
<path d="M2897 4135 c-34 -34 -40 -67 -23 -110 20 -48 73 -71 122 -55 43 15
64 44 64 93 0 84 -104 130 -163 72z"/>
<path d="M2133 4163 c-35 -7 -73 -59 -73 -99 0 -46 14 -70 50 -89 46 -24 78
-19 116 19 56 56 42 131 -32 162 -18 8 -35 13 -36 13 -2 -1 -13 -4 -25 -6z"/>
<path d="M1411 3746 c-87 -48 -50 -186 50 -186 53 0 98 48 99 103 0 75 -81
121 -149 83z"/>
<path d="M3589 3731 c-33 -34 -38 -75 -14 -121 47 -91 185 -53 185 50 0 33 -6
48 -29 71 -23 23 -38 29 -71 29 -33 0 -48 -6 -71 -29z"/>
<path d="M1014 3054 c-38 -18 -57 -52 -56 -95 3 -98 136 -133 185 -50 35 59
14 121 -49 147 -41 17 -42 17 -80 -2z"/>
<path d="M4001 3039 c-34 -32 -44 -66 -30 -106 11 -36 59 -73 92 -73 34 0 79
31 92 64 17 40 10 73 -23 109 -33 35 -96 38 -131 6z"/>
<path d="M1014 2245 c-60 -31 -73 -108 -25 -156 68 -68 184 -8 167 85 -12 66
-83 100 -142 71z"/>
<path d="M4002 2235 c-39 -33 -50 -80 -28 -123 20 -38 47 -54 92 -54 46 0 80
24 94 67 21 64 -18 123 -87 132 -32 4 -45 0 -71 -22z"/>
<path d="M3600 1533 c-20 -18 -33 -41 -37 -65 -5 -33 -2 -41 31 -74 33 -33 40
-36 79 -31 100 14 121 140 30 186 -36 18 -71 13 -103 -16z"/>
<path d="M1389 1531 c-23 -23 -29 -38 -29 -71 0 -33 6 -48 29 -71 65 -64 171
-20 171 71 0 33 -6 48 -29 71 -23 23 -38 29 -71 29 -33 0 -48 -6 -71 -29z"/>
<path d="M2116 1145 c-41 -22 -55 -44 -56 -88 0 -55 43 -97 99 -97 54 0 90 32
98 86 4 35 1 46 -23 73 -35 38 -78 47 -118 26z"/>
<path d="M2901 1134 c-41 -37 -50 -87 -22 -130 43 -70 146 -63 177 12 28 66
-10 131 -82 141 -35 4 -46 1 -73 -23z"/>
<path d="M4251 4386 c-90 -50 -50 -186 55 -186 38 0 94 59 94 100 0 23 -9 42
-34 66 -37 37 -73 43 -115 20z"/>
</g>
</svg>
