<svg xmlns="http://www.w3.org/2000/svg" xmlns:xlink="http://www.w3.org/1999/xlink" width="128" zoomAndPan="magnify" viewBox="0 0 96 95.999999" height="128" preserveAspectRatio="xMidYMid meet" version="1.0"><path fill="#6fe999" d="M 33.003906 90.441406 C -8.9375 75.8125 -6.230469 14.785156 36.769531 4.175781 C 73.929688 -4.992188 104.824219 32.621094 88.347656 67.324219 C 81.6875 81.371094 66.816406 92.640625 50.246094 92.410156 C 44.246094 92.324219 39.390625 92.667969 33.003906 90.441406 Z M 33.003906 90.441406 " fill-opacity="1" fill-rule="nonzero"/><path fill="#487d5f" d="M 85.382812 47.835938 C 85.382812 49.066406 85.320312 50.292969 85.203125 51.515625 C 85.082031 52.738281 84.902344 53.953125 84.660156 55.160156 C 84.421875 56.367188 84.121094 57.554688 83.765625 58.734375 C 83.410156 59.910156 82.996094 61.066406 82.523438 62.203125 C 82.054688 63.335938 81.53125 64.445312 80.949219 65.53125 C 80.371094 66.617188 79.738281 67.667969 79.054688 68.691406 C 78.375 69.710938 77.640625 70.699219 76.863281 71.648438 C 76.082031 72.601562 75.257812 73.507812 74.386719 74.378906 C 73.519531 75.246094 72.609375 76.074219 71.660156 76.851562 C 70.707031 77.632812 69.722656 78.363281 68.699219 79.046875 C 67.679688 79.730469 66.625 80.359375 65.539062 80.941406 C 64.457031 81.519531 63.347656 82.046875 62.210938 82.515625 C 61.074219 82.984375 59.917969 83.398438 58.742188 83.757812 C 57.566406 84.113281 56.375 84.410156 55.167969 84.652344 C 53.964844 84.890625 52.75 85.070312 51.527344 85.191406 C 50.300781 85.3125 49.074219 85.371094 47.847656 85.371094 C 46.617188 85.371094 45.390625 85.3125 44.167969 85.191406 C 42.945312 85.070312 41.730469 84.890625 40.523438 84.652344 C 39.316406 84.410156 38.125 84.113281 36.949219 83.757812 C 35.773438 83.398438 34.617188 82.984375 33.480469 82.515625 C 32.347656 82.046875 31.234375 81.519531 30.152344 80.941406 C 29.066406 80.359375 28.015625 79.730469 26.992188 79.046875 C 25.96875 78.363281 24.984375 77.632812 24.035156 76.851562 C 23.082031 76.074219 22.171875 75.246094 21.304688 74.378906 C 20.433594 73.507812 19.609375 72.601562 18.832031 71.648438 C 18.050781 70.699219 17.320312 69.710938 16.636719 68.691406 C 15.953125 67.667969 15.320312 66.617188 14.742188 65.53125 C 14.164062 64.445312 13.636719 63.335938 13.167969 62.203125 C 12.695312 61.066406 12.285156 59.910156 11.925781 58.734375 C 11.570312 57.554688 11.269531 56.367188 11.03125 55.160156 C 10.792969 53.953125 10.613281 52.738281 10.492188 51.515625 C 10.371094 50.292969 10.308594 49.066406 10.308594 47.835938 C 10.308594 46.609375 10.371094 45.382812 10.492188 44.15625 C 10.613281 42.933594 10.792969 41.71875 11.03125 40.515625 C 11.269531 39.308594 11.570312 38.117188 11.925781 36.941406 C 12.285156 35.765625 12.695312 34.609375 13.167969 33.472656 C 13.636719 32.335938 14.164062 31.226562 14.742188 30.140625 C 15.320312 29.058594 15.953125 28.003906 16.636719 26.984375 C 17.320312 25.960938 18.050781 24.972656 18.832031 24.023438 C 19.609375 23.074219 20.433594 22.164062 21.304688 21.292969 C 22.171875 20.425781 23.082031 19.601562 24.035156 18.820312 C 24.984375 18.042969 25.96875 17.308594 26.992188 16.625 C 28.015625 15.945312 29.066406 15.3125 30.152344 14.734375 C 31.234375 14.152344 32.347656 13.628906 33.480469 13.15625 C 34.617188 12.6875 35.773438 12.273438 36.949219 11.917969 C 38.125 11.558594 39.316406 11.261719 40.523438 11.023438 C 41.730469 10.78125 42.945312 10.601562 44.167969 10.480469 C 45.390625 10.359375 46.617188 10.300781 47.847656 10.300781 C 49.074219 10.300781 50.300781 10.359375 51.527344 10.480469 C 52.75 10.601562 53.964844 10.78125 55.167969 11.023438 C 56.375 11.261719 57.566406 11.558594 58.742188 11.917969 C 59.917969 12.273438 61.074219 12.6875 62.210938 13.15625 C 63.347656 13.628906 64.457031 14.152344 65.539062 14.734375 C 66.625 15.3125 67.679688 15.945312 68.699219 16.625 C 69.722656 17.308594 70.707031 18.042969 71.660156 18.820312 C 72.609375 19.601562 73.519531 20.425781 74.386719 21.292969 C 75.257812 22.164062 76.082031 23.074219 76.863281 24.023438 C 77.640625 24.972656 78.375 25.960938 79.054688 26.984375 C 79.738281 28.003906 80.371094 29.058594 80.949219 30.140625 C 81.53125 31.226562 82.054688 32.335938 82.523438 33.472656 C 82.996094 34.609375 83.410156 35.765625 83.765625 36.941406 C 84.121094 38.117188 84.421875 39.308594 84.660156 40.515625 C 84.902344 41.71875 85.082031 42.933594 85.203125 44.15625 C 85.320312 45.382812 85.382812 46.609375 85.382812 47.835938 Z M 85.382812 47.835938 " fill-opacity="1" fill-rule="nonzero"/><path fill="#6fe999" d="M 41.210938 36.238281 L 54.5 36.238281 C 54.617188 36.238281 54.714844 36.28125 54.796875 36.363281 C 54.878906 36.445312 54.921875 36.546875 54.921875 36.664062 L 54.921875 38.21875 C 54.921875 38.335938 54.878906 38.433594 54.796875 38.515625 C 54.714844 38.597656 54.617188 38.640625 54.5 38.640625 L 41.210938 38.640625 C 41.097656 38.640625 40.996094 38.597656 40.914062 38.515625 C 40.832031 38.433594 40.789062 38.335938 40.789062 38.21875 L 40.789062 36.664062 C 40.789062 36.546875 40.832031 36.445312 40.914062 36.363281 C 40.996094 36.28125 41.097656 36.238281 41.210938 36.238281 Z M 41.210938 36.238281 " fill-opacity="1" fill-rule="nonzero"/><path fill="#6fe999" d="M 42.992188 45.84375 L 52.726562 45.875 C 52.859375 45.875 52.988281 45.902344 53.113281 45.953125 C 53.234375 46.003906 53.34375 46.078125 53.4375 46.175781 C 53.535156 46.269531 53.605469 46.378906 53.65625 46.5 C 53.707031 46.625 53.730469 46.753906 53.730469 46.886719 L 53.730469 47.273438 C 53.730469 47.40625 53.703125 47.535156 53.652344 47.65625 C 53.601562 47.78125 53.527344 47.890625 53.433594 47.984375 C 53.339844 48.078125 53.230469 48.148438 53.105469 48.199219 C 52.980469 48.25 52.851562 48.277344 52.71875 48.277344 L 42.984375 48.242188 C 42.851562 48.242188 42.722656 48.214844 42.597656 48.164062 C 42.476562 48.113281 42.367188 48.039062 42.273438 47.945312 C 42.179688 47.851562 42.105469 47.742188 42.054688 47.617188 C 42.003906 47.492188 41.980469 47.363281 41.980469 47.230469 L 41.980469 46.847656 C 41.980469 46.714844 42.007812 46.585938 42.058594 46.460938 C 42.109375 46.339844 42.183594 46.230469 42.277344 46.136719 C 42.375 46.039062 42.484375 45.96875 42.605469 45.917969 C 42.730469 45.867188 42.859375 45.839844 42.992188 45.84375 Z M 42.992188 45.84375 " fill-opacity="1" fill-rule="nonzero"/><path fill="#6fe999" d="M 41.4375 56.148438 L 54.359375 56.171875 C 54.582031 56.171875 54.769531 56.25 54.925781 56.410156 C 55.085938 56.566406 55.164062 56.757812 55.164062 56.980469 L 55.160156 57.996094 C 55.160156 58.21875 55.082031 58.410156 54.921875 58.566406 C 54.765625 58.722656 54.574219 58.800781 54.351562 58.800781 L 41.429688 58.777344 C 41.207031 58.777344 41.019531 58.699219 40.863281 58.542969 C 40.703125 58.382812 40.625 58.195312 40.625 57.972656 L 40.628906 56.953125 C 40.628906 56.730469 40.707031 56.542969 40.867188 56.382812 C 41.023438 56.226562 41.214844 56.148438 41.4375 56.148438 Z M 41.4375 56.148438 " fill-opacity="1" fill-rule="nonzero"/></svg>